power_kick1_modified_grf.mot
version=1
nRows=21
nColumns=19
inDegrees=yes
endheader
time	ground_force_r_vx	ground_force_r_vy	ground_force_r_vz	ground_force_r_px	ground_force_r_py	ground_force_r_pz	ground_force_l_vx	ground_force_l_vy	ground_force_l_vz	ground_force_l_px	ground_force_l_py	ground_force_l_pz	ground_torque_r_x	ground_torque_r_y	ground_torque_r_z	ground_torque_l_x	ground_torque_l_y	ground_torque_l_z
1.09500000	    1.12075271	    1.38463056	    2.71070537	    0.25168278	    0.00000000	   -0.21277847	    2.83666680	  660.29189085	   11.56830018	   -0.52234480	    0.00000000	   -0.14213692	    0.00000000	    0.73280060	    0.00000000	    0.00000000	   -5.98738579	    0.00000000	
1.09525000	    1.12058496	    1.38283556	    2.70931800	    0.25171088	    0.00000000	   -0.21274106	    2.74437407	  660.45735606	   11.54057475	   -0.52233448	    0.00000000	   -0.14212964	    0.00000000	    0.73237015	    0.00000000	    0.00000000	   -5.96974403	    0.00000000	
1.09550000	    1.12040722	    1.38101886	    2.70790363	    0.25173904	    0.00000000	   -0.21270454	    2.65203532	  660.62409936	   11.51299019	   -0.52232387	    0.00000000	   -0.14212243	    0.00000000	    0.73193960	    0.00000000	    0.00000000	   -5.95209351	    0.00000000	
1.09575000	    1.12022122	    1.37918298	    2.70646619	    0.25176725	    0.00000000	   -0.21266891	    2.55964606	  660.79211012	   11.48554447	   -0.52231294	    0.00000000	   -0.14211529	    0.00000000	    0.73151004	    0.00000000	    0.00000000	   -5.93443458	    0.00000000	
1.09600000	    1.12002853	    1.37733024	    2.70500924	    0.25179552	    0.00000000	   -0.21263418	    2.46720172	  660.96137690	   11.45823572	   -0.52230170	    0.00000000	   -0.14210822	    0.00000000	    0.73108240	    0.00000000	    0.00000000	   -5.91676761	    0.00000000	
1.09625000	    1.11983052	    1.37546275	    2.70353587	    0.25182385	    0.00000000	   -0.21260034	    2.37469755	  661.13188751	   11.43106204	   -0.52229014	    0.00000000	   -0.14210122	    0.00000000	    0.73065755	    0.00000000	    0.00000000	   -5.89909295	    0.00000000	
1.09650000	    1.11962840	    1.37358239	    2.70204878	    0.25185222	    0.00000000	   -0.21256739	    2.28212864	  661.30362862	   11.40402149	   -0.52227828	    0.00000000	   -0.14209429	    0.00000000	    0.73023619	    0.00000000	    0.00000000	   -5.88141095	    0.00000000	
1.09675000	    1.11942335	    1.37169097	    2.70055056	    0.25188065	    0.00000000	   -0.21253534	    2.18948988	  661.47658615	   11.37711208	   -0.52226609	    0.00000000	   -0.14208742	    0.00000000	    0.72981903	    0.00000000	    0.00000000	   -5.86372196	    0.00000000	
1.09700000	    1.11921686	    1.36979069	    2.69904468	    0.25190912	    0.00000000	   -0.21250419	    2.09677595	  661.65074534	   11.35033200	   -0.52225359	    0.00000000	   -0.14208063	    0.00000000	    0.72940702	    0.00000000	    0.00000000	   -5.84602634	    0.00000000	
1.09725000	    1.11901039	    1.36788364	    2.69753452	    0.25193764	    0.00000000	   -0.21247393	    2.00398146	  661.82609020	   11.32367942	   -0.52224077	    0.00000000	   -0.14207391	    0.00000000	    0.72900109	    0.00000000	    0.00000000	   -5.82832447	    0.00000000	
1.09750000	    1.11880523	    1.36597173	    2.69602303	    0.25196621	    0.00000000	   -0.21244458	    1.91110087	  662.00260287	   11.29715248	   -0.52222762	    0.00000000	   -0.14206725	    0.00000000	    0.72860203	    0.00000000	    0.00000000	   -5.81061670	    0.00000000	
1.09775000	    1.11860249	    1.36405662	    2.69451275	    0.25199482	    0.00000000	   -0.21241613	    1.81812837	  662.18026438	   11.27074931	   -0.52221416	    0.00000000	   -0.14206067	    0.00000000	    0.72821056	    0.00000000	    0.00000000	   -5.79290339	    0.00000000	
1.09800000	    1.11840310	    1.36213980	    2.69300579	    0.25202348	    0.00000000	   -0.21238859	    1.72505811	  662.35905478	   11.24446821	   -0.52220037	    0.00000000	   -0.14205415	    0.00000000	    0.72782724	    0.00000000	    0.00000000	   -5.77518489	    0.00000000	
1.09825000	    1.11820783	    1.36022251	    2.69150384	    0.25205216	    0.00000000	   -0.21236197	    1.63188424	  662.53895314	   11.21830750	   -0.52218625	    0.00000000	   -0.14204770	    0.00000000	    0.72745254	    0.00000000	    0.00000000	   -5.75746156	    0.00000000	
1.09850000	    1.11801725	    1.35830580	    2.69000816	    0.25208088	    0.00000000	   -0.21233627	    1.53860086	  662.71993724	   11.19226545	   -0.52217181	    0.00000000	   -0.14204132	    0.00000000	    0.72708683	    0.00000000	    0.00000000	   -5.73973378	    0.00000000	
1.09875000	    1.11783179	    1.35639050	    2.68851962	    0.25210961	    0.00000000	   -0.21231151	    1.44520181	  662.90198412	   11.16634035	   -0.52215704	    0.00000000	   -0.14203500	    0.00000000	    0.72673033	    0.00000000	    0.00000000	   -5.72200187	    0.00000000	
1.09900000	    1.11765166	    1.35447722	    2.68703864	    0.25213836	    0.00000000	   -0.21228769	    1.35168083	  663.08506977	   11.14053057	   -0.52214194	    0.00000000	   -0.14202875	    0.00000000	    0.72638318	    0.00000000	    0.00000000	   -5.70426617	    0.00000000	
1.09925000	    1.11747695	    1.35256637	    2.68556523	    0.25216710	    0.00000000	   -0.21226484	    1.25803169	  663.26916931	   11.11483443	   -0.52212651	    0.00000000	   -0.14202256	    0.00000000	    0.72604539	    0.00000000	    0.00000000	   -5.68652702	    0.00000000	
1.09950000	    1.11730753	    1.35065815	    2.68409898	    0.25219584	    0.00000000	   -0.21224296	    1.16424816	  663.45425733	   11.08925019	   -0.52211075	    0.00000000	   -0.14201644	    0.00000000	    0.72571685	    0.00000000	    0.00000000	   -5.66878474	    0.00000000	
1.09975000	    1.11714311	    1.34875253	    2.68263906	    0.25222455	    0.00000000	   -0.21222207	    1.07032400	  663.64030787	   11.06377614	   -0.52209466	    0.00000000	   -0.14201038	    0.00000000	    0.72539736	    0.00000000	    0.00000000	   -5.65103964	    0.00000000	
1.10000000	    1.11698333	    1.34684943	    2.68118454	    0.25225323	    0.00000000	   -0.21220219	    0.97625292	  663.82729405	   11.03841071	   -0.52207824	    0.00000000	   -0.14200439	    0.00000000	    0.72508668	    0.00000000	    0.00000000	   -5.63329205	    0.00000000	
